<?xml version="1.0" encoding="UTF-8" standalone="no"?>
<!DOCTYPE svg PUBLIC "-//W3C//DTD SVG 1.1//EN"
 "http://www.w3.org/Graphics/SVG/1.1/DTD/svg11.dtd">
<!-- Generated by graphviz version 2.40.1 (20161225.0304)
 -->
<!-- Title: models_diagram Pages: 1 -->
<svg width="1705pt" height="240pt"
 viewBox="0.00 0.00 1705.27 240.00" xmlns="http://www.w3.org/2000/svg" xmlns:xlink="http://www.w3.org/1999/xlink">
<g id="graph0" class="graph" transform="scale(1 1) rotate(0) translate(4 236)">
<title>models_diagram</title>
<polygon fill="transparent" stroke="transparent" points="-4,4 -4,-236 1701.267,-236 1701.267,4 -4,4"/>
<!-- _diagram_info -->
<g id="node1" class="node">
<title>_diagram_info</title>
<text text-anchor="start" x="8" y="-217.6" font-family="Times,serif" font-size="13.00" fill="#000000">Models diagram</text>
<text text-anchor="start" x="8" y="-204.6" font-family="Times,serif" font-size="13.00" fill="#000000">Date: Oct 03 2018 &#45; 14:14</text>
<text text-anchor="start" x="8" y="-191.6" font-family="Times,serif" font-size="13.00" fill="#000000">Migration version: 20180921063404</text>
<text text-anchor="start" x="8" y="-178.6" font-family="Times,serif" font-size="13.00" fill="#000000">Generated by RailRoady 1.5.3</text>
<text text-anchor="start" x="8" y="-165.6" font-family="Times,serif" font-size="13.00" fill="#000000">http://railroady.prestonlee.com</text>
</g>
<!-- ExportGenerator -->
<g id="node2" class="node">
<title>ExportGenerator</title>
<polygon fill="none" stroke="#000000" points="335.7571,-213.5 225.6184,-213.5 225.6184,-177.5 335.7571,-177.5 335.7571,-213.5"/>
<text text-anchor="middle" x="280.6877" y="-191.3" font-family="Times,serif" font-size="14.00" fill="#000000">ExportGenerator</text>
</g>
<!-- Balance -->
<g id="node3" class="node">
<title>Balance</title>
<ellipse fill="none" stroke="#000000" cx="392.6877" cy="-195.5" rx="38.6695" ry="18"/>
<text text-anchor="middle" x="392.6877" y="-191.3" font-family="Times,serif" font-size="14.00" fill="#000000">Balance</text>
</g>
<!-- Goal -->
<g id="node5" class="node">
<title>Goal</title>
<ellipse fill="none" stroke="#000000" cx="369.6877" cy="-104" rx="27.0958" ry="18"/>
<text text-anchor="middle" x="369.6877" y="-99.8" font-family="Times,serif" font-size="14.00" fill="#000000">Goal</text>
</g>
<!-- Balance&#45;&gt;Goal -->
<g id="edge2" class="edge">
<title>Balance&#45;&gt;Goal</title>
<path fill="none" stroke="#374d19" d="M386.1337,-169.4262C383.1879,-157.7071 379.7072,-143.8601 376.7083,-131.9294"/>
<ellipse fill="none" stroke="#374d19" cx="387.1685" cy="-173.5432" rx="4" ry="4"/>
<polygon fill="#374d19" stroke="#374d19" points="376.6603,-131.7382 378.5866,-120.9428 375.4413,-126.8891 374.2224,-122.0399 374.2224,-122.0399 374.2224,-122.0399 375.4413,-126.8891 369.8581,-123.137 376.6603,-131.7382 376.6603,-131.7382"/>
</g>
<!-- Transaction -->
<g id="node15" class="node">
<title>Transaction</title>
<ellipse fill="none" stroke="#000000" cx="557.6877" cy="-104" rx="51.5866" ry="18"/>
<text text-anchor="middle" x="557.6877" y="-99.8" font-family="Times,serif" font-size="14.00" fill="#000000">Transaction</text>
</g>
<!-- Balance&#45;&gt;Transaction -->
<g id="edge1" class="edge">
<title>Balance&#45;&gt;Transaction</title>
<path fill="none" stroke="#ca9393" d="M424.8148,-177.6841C452.4787,-162.3432 492.3854,-140.2131 521.2371,-124.2135"/>
<ellipse fill="none" stroke="#ca9393" cx="421.2458" cy="-179.6632" rx="4" ry="4"/>
<polygon fill="#ca9393" stroke="#ca9393" points="521.4412,-124.1004 532.3689,-123.1861 525.8139,-121.6755 530.1866,-119.2507 530.1866,-119.2507 530.1866,-119.2507 525.8139,-121.6755 528.0042,-115.3153 521.4412,-124.1004 521.4412,-124.1004"/>
</g>
<!-- TeamInviteAdder -->
<g id="node4" class="node">
<title>TeamInviteAdder</title>
<polygon fill="none" stroke="#000000" points="686.7219,-213.5 572.6536,-213.5 572.6536,-177.5 686.7219,-177.5 686.7219,-213.5"/>
<text text-anchor="middle" x="629.6877" y="-191.3" font-family="Times,serif" font-size="14.00" fill="#000000">TeamInviteAdder</text>
</g>
<!-- ActsAsVotable::Vote -->
<g id="node19" class="node">
<title>ActsAsVotable::Vote</title>
<ellipse fill="none" stroke="#000000" cx="435.6877" cy="-18" rx="83.9272" ry="18"/>
<text text-anchor="middle" x="435.6877" y="-13.8" font-family="Times,serif" font-size="14.00" fill="#000000">ActsAsVotable::Vote</text>
</g>
<!-- Goal&#45;&gt;ActsAsVotable::Vote -->
<g id="edge3" class="edge">
<title>Goal&#45;&gt;ActsAsVotable::Vote</title>
<path fill="none" stroke="#735920" d="M364.08,-78.2053C363.5921,-69.9752 364.5375,-61.1551 368.8118,-54 372.3101,-48.1438 377.1257,-43.1843 382.5832,-38.9982"/>
<ellipse fill="none" stroke="#735920" cx="364.5277" cy="-82.1803" rx="4" ry="4"/>
<polygon fill="#735920" stroke="#735920" points="382.6437,-38.9579 393.459,-37.1465 386.8018,-36.1811 390.9599,-33.4043 390.9599,-33.4043 390.9599,-33.4043 386.8018,-36.1811 388.4607,-29.662 382.6437,-38.9579 382.6437,-38.9579"/>
<text text-anchor="middle" x="396.1257" y="-56.8" font-family="Times,serif" font-size="14.00" fill="#000000">votes_for</text>
</g>
<!-- Guideline -->
<g id="node6" class="node">
<title>Guideline</title>
<ellipse fill="none" stroke="#000000" cx="749.6877" cy="-195.5" rx="44.9596" ry="18"/>
<text text-anchor="middle" x="749.6877" y="-191.3" font-family="Times,serif" font-size="14.00" fill="#000000">Guideline</text>
</g>
<!-- FcmToken -->
<g id="node7" class="node">
<title>FcmToken</title>
<ellipse fill="none" stroke="#000000" cx="860.6877" cy="-195.5" rx="47.6084" ry="18"/>
<text text-anchor="middle" x="860.6877" y="-191.3" font-family="Times,serif" font-size="14.00" fill="#000000">FcmToken</text>
</g>
<!-- Vote -->
<g id="node8" class="node">
<title>Vote</title>
<ellipse fill="none" stroke="#000000" cx="596.6877" cy="-18" rx="27" ry="18"/>
<text text-anchor="middle" x="596.6877" y="-13.8" font-family="Times,serif" font-size="14.00" fill="#000000">Vote</text>
</g>
<!-- TeamInviteForm -->
<g id="node9" class="node">
<title>TeamInviteForm</title>
<polygon fill="none" stroke="#000000" points="1036.5726,-213.5 926.8029,-213.5 926.8029,-177.5 1036.5726,-177.5 1036.5726,-213.5"/>
<text text-anchor="middle" x="981.6877" y="-191.3" font-family="Times,serif" font-size="14.00" fill="#000000">TeamInviteForm</text>
</g>
<!-- GoalReacher -->
<g id="node10" class="node">
<title>GoalReacher</title>
<polygon fill="none" stroke="#000000" points="1143.2571,-213.5 1054.1184,-213.5 1054.1184,-177.5 1143.2571,-177.5 1143.2571,-213.5"/>
<text text-anchor="middle" x="1098.6877" y="-191.3" font-family="Times,serif" font-size="14.00" fill="#000000">GoalReacher</text>
</g>
<!-- Activity -->
<g id="node11" class="node">
<title>Activity</title>
<ellipse fill="none" stroke="#000000" cx="515.6877" cy="-195.5" rx="39.18" ry="18"/>
<text text-anchor="middle" x="515.6877" y="-191.3" font-family="Times,serif" font-size="14.00" fill="#000000">Activity</text>
</g>
<!-- Activity&#45;&gt;Transaction -->
<g id="edge4" class="edge">
<title>Activity&#45;&gt;Transaction</title>
<path fill="none" stroke="#c51ef7" d="M527.2838,-170.2371C532.8408,-158.1308 539.505,-143.6124 545.1762,-131.2574"/>
<ellipse fill="none" stroke="#c51ef7" cx="525.4545" cy="-174.2226" rx="4" ry="4"/>
<polygon fill="#c51ef7" stroke="#c51ef7" points="545.2995,-130.9885 553.561,-123.7774 547.3854,-126.4443 549.4713,-121.9002 549.4713,-121.9002 549.4713,-121.9002 547.3854,-126.4443 545.3815,-120.0229 545.2995,-130.9885 545.2995,-130.9885"/>
</g>
<!-- Activity&#45;&gt;ActsAsVotable::Vote -->
<g id="edge5" class="edge">
<title>Activity&#45;&gt;ActsAsVotable::Vote</title>
<path fill="none" stroke="#2a8718" d="M487.6977,-175.0798C471.8927,-161.8585 453.4292,-143.1884 443.8118,-122 432.9898,-98.1579 431.8001,-68.0759 432.8146,-46.406"/>
<ellipse fill="none" stroke="#2a8718" cx="491.1659" cy="-177.8872" rx="4" ry="4"/>
<polygon fill="#2a8718" stroke="#2a8718" points="432.8285,-46.1922 437.9721,-36.5075 433.1551,-41.2029 433.4817,-36.2136 433.4817,-36.2136 433.4817,-36.2136 433.1551,-41.2029 428.9914,-35.9196 432.8285,-46.1922 432.8285,-46.1922"/>
<text text-anchor="middle" x="470.1257" y="-99.8" font-family="Times,serif" font-size="14.00" fill="#000000">votes_for</text>
</g>
<!-- Team -->
<g id="node12" class="node">
<title>Team</title>
<ellipse fill="none" stroke="#000000" cx="1190.6877" cy="-195.5" rx="29.7411" ry="18"/>
<text text-anchor="middle" x="1190.6877" y="-191.3" font-family="Times,serif" font-size="14.00" fill="#000000">Team</text>
</g>
<!-- Export -->
<g id="node13" class="node">
<title>Export</title>
<ellipse fill="none" stroke="#000000" cx="1272.6877" cy="-195.5" rx="34.3527" ry="18"/>
<text text-anchor="middle" x="1272.6877" y="-191.3" font-family="Times,serif" font-size="14.00" fill="#000000">Export</text>
</g>
<!-- TransactionAdder -->
<g id="node14" class="node">
<title>TransactionAdder</title>
<polygon fill="none" stroke="#000000" points="1440.7725,-213.5 1324.603,-213.5 1324.603,-177.5 1440.7725,-177.5 1440.7725,-213.5"/>
<text text-anchor="middle" x="1382.6877" y="-191.3" font-family="Times,serif" font-size="14.00" fill="#000000">TransactionAdder</text>
</g>
<!-- Transaction&#45;&gt;Vote -->
<g id="edge7" class="edge">
<title>Transaction&#45;&gt;Vote</title>
<path fill="none" stroke="#6a1aa0" d="M569.1111,-78.81C573.9416,-68.1582 579.5752,-55.7354 584.4868,-44.9047"/>
<ellipse fill="none" stroke="#6a1aa0" cx="567.4206" cy="-82.5378" rx="4" ry="4"/>
<polygon fill="#6a1aa0" stroke="#6a1aa0" points="584.6206,-44.6095 592.849,-37.3607 586.6857,-40.0558 588.7507,-35.5022 588.7507,-35.5022 588.7507,-35.5022 586.6857,-40.0558 584.6524,-33.6436 584.6206,-44.6095 584.6206,-44.6095"/>
</g>
<!-- Transaction&#45;&gt;ActsAsVotable::Vote -->
<g id="edge6" class="edge">
<title>Transaction&#45;&gt;ActsAsVotable::Vote</title>
<path fill="none" stroke="#bb05f0" d="M527.9663,-83.0488C510.0202,-70.3983 487.1225,-54.2573 468.6261,-41.2189"/>
<ellipse fill="none" stroke="#bb05f0" cx="531.4711" cy="-85.5194" rx="4" ry="4"/>
<polygon fill="#bb05f0" stroke="#bb05f0" points="468.38,-41.0454 462.7993,-31.6058 464.2933,-38.1646 460.2066,-35.2838 460.2066,-35.2838 460.2066,-35.2838 464.2933,-38.1646 457.6139,-38.9618 468.38,-41.0454 468.38,-41.0454"/>
<text text-anchor="middle" x="530.1257" y="-56.8" font-family="Times,serif" font-size="14.00" fill="#000000">votes_for</text>
</g>
<!-- TeamInvite -->
<g id="node16" class="node">
<title>TeamInvite</title>
<ellipse fill="none" stroke="#000000" cx="1509.6877" cy="-195.5" rx="50.497" ry="18"/>
<text text-anchor="middle" x="1509.6877" y="-191.3" font-family="Times,serif" font-size="14.00" fill="#000000">TeamInvite</text>
</g>
<!-- TeamMember -->
<g id="node17" class="node">
<title>TeamMember</title>
<ellipse fill="none" stroke="#000000" cx="1637.6877" cy="-195.5" rx="59.6587" ry="18"/>
<text text-anchor="middle" x="1637.6877" y="-191.3" font-family="Times,serif" font-size="14.00" fill="#000000">TeamMember</text>
</g>
<!-- User -->
<g id="node18" class="node">
<title>User</title>
<ellipse fill="none" stroke="#000000" cx="654.6877" cy="-104" rx="27" ry="18"/>
<text text-anchor="middle" x="654.6877" y="-99.8" font-family="Times,serif" font-size="14.00" fill="#000000">User</text>
</g>
<!-- User&#45;&gt;Vote -->
<g id="edge8" class="edge">
<title>User&#45;&gt;Vote</title>
<path fill="none" stroke="#4f2bbb" d="M638.9102,-80.6057C631.0713,-68.9825 621.5923,-54.9274 613.6033,-43.0817"/>
<ellipse fill="none" stroke="#4f2bbb" cx="641.2682" cy="-84.102" rx="4" ry="4"/>
<polygon fill="#4f2bbb" stroke="#4f2bbb" points="613.4279,-42.8215 611.5672,-32.0146 610.6321,-38.6761 607.8364,-34.5308 607.8364,-34.5308 607.8364,-34.5308 610.6321,-38.6761 604.1056,-37.0469 613.4279,-42.8215 613.4279,-42.8215"/>
</g>
</g>
</svg>
