<?xml version="1.0" encoding="UTF-8" standalone="no"?>
<!DOCTYPE svg PUBLIC "-//W3C//DTD SVG 1.1//EN"
 "http://www.w3.org/Graphics/SVG/1.1/DTD/svg11.dtd">
<!-- Generated by graphviz version 2.40.1 (20161225.0304)
 -->
<!-- Title: models_diagram Pages: 1 -->
<svg width="3042pt" height="986pt"
 viewBox="0.00 0.00 3041.55 986.00" xmlns="http://www.w3.org/2000/svg" xmlns:xlink="http://www.w3.org/1999/xlink">
<g id="graph0" class="graph" transform="scale(1 1) rotate(0) translate(4 982)">
<title>models_diagram</title>
<polygon fill="transparent" stroke="transparent" points="-4,4 -4,-982 3037.55,-982 3037.55,4 -4,4"/>
<!-- _diagram_info -->
<g id="node1" class="node">
<title>_diagram_info</title>
<text text-anchor="start" x="8" y="-886.6" font-family="Times,serif" font-size="13.00" fill="#000000">Models diagram</text>
<text text-anchor="start" x="8" y="-873.6" font-family="Times,serif" font-size="13.00" fill="#000000">Date: Oct 03 2018 &#45; 14:14</text>
<text text-anchor="start" x="8" y="-860.6" font-family="Times,serif" font-size="13.00" fill="#000000">Migration version: 20180921063404</text>
<text text-anchor="start" x="8" y="-847.6" font-family="Times,serif" font-size="13.00" fill="#000000">Generated by RailRoady 1.5.3</text>
<text text-anchor="start" x="8" y="-834.6" font-family="Times,serif" font-size="13.00" fill="#000000">http://railroady.prestonlee.com</text>
</g>
<!-- ExportGenerator -->
<g id="node2" class="node">
<title>ExportGenerator</title>
<polygon fill="none" stroke="#000000" points="225.6531,-842.5 225.6531,-886.5 335.7224,-886.5 335.7224,-842.5 225.6531,-842.5"/>
<text text-anchor="middle" x="280.6877" y="-871.3" font-family="Times,serif" font-size="14.00" fill="#000000">ExportGenerator</text>
<polyline fill="none" stroke="#000000" points="225.6531,-864.5 335.7224,-864.5 "/>
<text text-anchor="middle" x="280.6877" y="-849.3" font-family="Times,serif" font-size="14.00" fill="#000000"> </text>
</g>
<!-- Balance -->
<g id="node3" class="node">
<title>Balance</title>
<path fill="none" stroke="#000000" d="M365.8254,-807.5C365.8254,-807.5 589.55,-807.5 589.55,-807.5 595.55,-807.5 601.55,-813.5 601.55,-819.5 601.55,-819.5 601.55,-909.5 601.55,-909.5 601.55,-915.5 595.55,-921.5 589.55,-921.5 589.55,-921.5 365.8254,-921.5 365.8254,-921.5 359.8254,-921.5 353.8254,-915.5 353.8254,-909.5 353.8254,-909.5 353.8254,-819.5 353.8254,-819.5 353.8254,-813.5 359.8254,-807.5 365.8254,-807.5"/>
<text text-anchor="middle" x="477.6877" y="-906.3" font-family="Times,serif" font-size="14.00" fill="#000000">Balance</text>
<polyline fill="none" stroke="#000000" points="353.8254,-899.5 601.55,-899.5 "/>
<text text-anchor="start" x="361.8254" y="-884.3" font-family="Times,serif" font-size="14.00" fill="#000000">id :integer</text>
<text text-anchor="start" x="361.8254" y="-870.3" font-family="Times,serif" font-size="14.00" fill="#000000">name :character varying</text>
<text text-anchor="start" x="361.8254" y="-856.3" font-family="Times,serif" font-size="14.00" fill="#000000">current :boolean</text>
<text text-anchor="start" x="361.8254" y="-842.3" font-family="Times,serif" font-size="14.00" fill="#000000">created_at :timestamp without time zone</text>
<text text-anchor="start" x="361.8254" y="-828.3" font-family="Times,serif" font-size="14.00" fill="#000000">updated_at :timestamp without time zone</text>
<text text-anchor="start" x="361.8254" y="-814.3" font-family="Times,serif" font-size="14.00" fill="#000000">team_id :integer</text>
</g>
<!-- Goal -->
<g id="node5" class="node">
<title>Goal</title>
<path fill="none" stroke="#000000" d="M300.8254,-403.5C300.8254,-403.5 524.55,-403.5 524.55,-403.5 530.55,-403.5 536.55,-409.5 536.55,-415.5 536.55,-415.5 536.55,-519.5 536.55,-519.5 536.55,-525.5 530.55,-531.5 524.55,-531.5 524.55,-531.5 300.8254,-531.5 300.8254,-531.5 294.8254,-531.5 288.8254,-525.5 288.8254,-519.5 288.8254,-519.5 288.8254,-415.5 288.8254,-415.5 288.8254,-409.5 294.8254,-403.5 300.8254,-403.5"/>
<text text-anchor="middle" x="412.6877" y="-516.3" font-family="Times,serif" font-size="14.00" fill="#000000">Goal</text>
<polyline fill="none" stroke="#000000" points="288.8254,-509.5 536.55,-509.5 "/>
<text text-anchor="start" x="296.8254" y="-494.3" font-family="Times,serif" font-size="14.00" fill="#000000">id :integer</text>
<text text-anchor="start" x="296.8254" y="-480.3" font-family="Times,serif" font-size="14.00" fill="#000000">name :character varying(32)</text>
<text text-anchor="start" x="296.8254" y="-466.3" font-family="Times,serif" font-size="14.00" fill="#000000">amount :integer</text>
<text text-anchor="start" x="296.8254" y="-452.3" font-family="Times,serif" font-size="14.00" fill="#000000">achieved_on :date</text>
<text text-anchor="start" x="296.8254" y="-438.3" font-family="Times,serif" font-size="14.00" fill="#000000">created_at :timestamp without time zone</text>
<text text-anchor="start" x="296.8254" y="-424.3" font-family="Times,serif" font-size="14.00" fill="#000000">updated_at :timestamp without time zone</text>
<text text-anchor="start" x="296.8254" y="-410.3" font-family="Times,serif" font-size="14.00" fill="#000000">balance_id :integer</text>
</g>
<!-- Balance&#45;&gt;Goal -->
<g id="edge2" class="edge">
<title>Balance&#45;&gt;Goal</title>
<path fill="none" stroke="#c38608" d="M467.0116,-799.2934C455.4373,-728.6011 436.9981,-615.9804 424.8671,-541.8879"/>
<ellipse fill="none" stroke="#c38608" cx="467.6593" cy="-803.2493" rx="4" ry="4"/>
<polygon fill="#c38608" stroke="#c38608" points="424.8145,-541.5658 427.6395,-530.9701 424.0066,-536.6315 423.1986,-531.6972 423.1986,-531.6972 423.1986,-531.6972 424.0066,-536.6315 418.7578,-532.4244 424.8145,-541.5658 424.8145,-541.5658"/>
</g>
<!-- Transaction -->
<g id="node15" class="node">
<title>Transaction</title>
<path fill="none" stroke="#000000" d="M655.2219,-340.5C655.2219,-340.5 920.1536,-340.5 920.1536,-340.5 926.1536,-340.5 932.1536,-346.5 932.1536,-352.5 932.1536,-352.5 932.1536,-582.5 932.1536,-582.5 932.1536,-588.5 926.1536,-594.5 920.1536,-594.5 920.1536,-594.5 655.2219,-594.5 655.2219,-594.5 649.2219,-594.5 643.2219,-588.5 643.2219,-582.5 643.2219,-582.5 643.2219,-352.5 643.2219,-352.5 643.2219,-346.5 649.2219,-340.5 655.2219,-340.5"/>
<text text-anchor="middle" x="787.6877" y="-579.3" font-family="Times,serif" font-size="14.00" fill="#000000">Transaction</text>
<polyline fill="none" stroke="#000000" points="643.2219,-572.5 932.1536,-572.5 "/>
<text text-anchor="start" x="651.2219" y="-557.3" font-family="Times,serif" font-size="14.00" fill="#000000">team_id :integer</text>
<text text-anchor="start" x="651.2219" y="-543.3" font-family="Times,serif" font-size="14.00" fill="#000000">sender_id :integer</text>
<text text-anchor="start" x="651.2219" y="-529.3" font-family="Times,serif" font-size="14.00" fill="#000000">receiver_id :integer</text>
<text text-anchor="start" x="651.2219" y="-515.3" font-family="Times,serif" font-size="14.00" fill="#000000">activity_id :integer</text>
<text text-anchor="start" x="651.2219" y="-501.3" font-family="Times,serif" font-size="14.00" fill="#000000">balance_id :integer</text>
<text text-anchor="start" x="651.2219" y="-487.3" font-family="Times,serif" font-size="14.00" fill="#000000">amount :integer</text>
<text text-anchor="start" x="651.2219" y="-473.3" font-family="Times,serif" font-size="14.00" fill="#000000">created_at :timestamp without time zone</text>
<text text-anchor="start" x="651.2219" y="-459.3" font-family="Times,serif" font-size="14.00" fill="#000000">updated_at :timestamp without time zone</text>
<text text-anchor="start" x="651.2219" y="-445.3" font-family="Times,serif" font-size="14.00" fill="#000000">image_file_name :character varying</text>
<text text-anchor="start" x="651.2219" y="-431.3" font-family="Times,serif" font-size="14.00" fill="#000000">image_content_type :character varying</text>
<text text-anchor="start" x="651.2219" y="-417.3" font-family="Times,serif" font-size="14.00" fill="#000000">image_file_size :integer</text>
<text text-anchor="start" x="651.2219" y="-403.3" font-family="Times,serif" font-size="14.00" fill="#000000">image_updated_at :timestamp without time zone</text>
<text text-anchor="start" x="651.2219" y="-389.3" font-family="Times,serif" font-size="14.00" fill="#000000">slack_reaction_created_at :character varying</text>
<text text-anchor="start" x="651.2219" y="-375.3" font-family="Times,serif" font-size="14.00" fill="#000000">slack_transaction_updated_at :character varying</text>
<text text-anchor="start" x="651.2219" y="-361.3" font-family="Times,serif" font-size="14.00" fill="#000000">slack_kudos_left_on_creation :integer</text>
<text text-anchor="start" x="651.2219" y="-347.3" font-family="Times,serif" font-size="14.00" fill="#000000">id :integer</text>
</g>
<!-- Balance&#45;&gt;Transaction -->
<g id="edge1" class="edge">
<title>Balance&#45;&gt;Transaction</title>
<path fill="none" stroke="#71aa85" d="M547.6013,-801.5502C574.6241,-775.6577 604.9341,-744.5994 629.6877,-714 657.3609,-679.7916 684.3841,-640.5345 708.033,-603.5539"/>
<ellipse fill="none" stroke="#71aa85" cx="544.4264" cy="-804.5749" rx="4" ry="4"/>
<polygon fill="#71aa85" stroke="#71aa85" points="708.2911,-603.1477 717.4524,-597.1209 710.9727,-598.9276 713.6543,-594.7075 713.6543,-594.7075 713.6543,-594.7075 710.9727,-598.9276 709.8562,-592.294 708.2911,-603.1477 708.2911,-603.1477"/>
</g>
<!-- TeamInviteAdder -->
<g id="node4" class="node">
<title>TeamInviteAdder</title>
<polygon fill="none" stroke="#000000" points="895.4211,-842.5 895.4211,-886.5 1009.9543,-886.5 1009.9543,-842.5 895.4211,-842.5"/>
<text text-anchor="middle" x="952.6877" y="-871.3" font-family="Times,serif" font-size="14.00" fill="#000000">TeamInviteAdder</text>
<polyline fill="none" stroke="#000000" points="895.4211,-864.5 1009.9543,-864.5 "/>
<text text-anchor="middle" x="952.6877" y="-849.3" font-family="Times,serif" font-size="14.00" fill="#000000"> </text>
</g>
<!-- ActsAsVotable::Vote -->
<g id="node19" class="node">
<title>ActsAsVotable::Vote</title>
<ellipse fill="none" stroke="#000000" cx="572.6877" cy="-85.5" rx="83.9272" ry="18"/>
<text text-anchor="middle" x="572.6877" y="-81.3" font-family="Times,serif" font-size="14.00" fill="#000000">ActsAsVotable::Vote</text>
</g>
<!-- Goal&#45;&gt;ActsAsVotable::Vote -->
<g id="edge3" class="edge">
<title>Goal&#45;&gt;ActsAsVotable::Vote</title>
<path fill="none" stroke="#7cef94" d="M431.4272,-395.2973C447.5913,-337.9053 473.4244,-256.3605 505.8118,-189 519.1956,-161.1637 538.7538,-131.8059 553.2652,-111.4963"/>
<ellipse fill="none" stroke="#7cef94" cx="430.2871" cy="-399.3788" rx="4" ry="4"/>
<polygon fill="#7cef94" stroke="#7cef94" points="553.2789,-111.4774 562.7879,-106.0157 556.2108,-107.4272 559.1427,-103.377 559.1427,-103.377 559.1427,-103.377 556.2108,-107.4272 555.4975,-100.7383 553.2789,-111.4774 553.2789,-111.4774"/>
<text text-anchor="middle" x="532.1257" y="-191.8" font-family="Times,serif" font-size="14.00" fill="#000000">votes_for</text>
</g>
<!-- Guideline -->
<g id="node6" class="node">
<title>Guideline</title>
<path fill="none" stroke="#000000" d="M1039.8254,-807.5C1039.8254,-807.5 1263.55,-807.5 1263.55,-807.5 1269.55,-807.5 1275.55,-813.5 1275.55,-819.5 1275.55,-819.5 1275.55,-909.5 1275.55,-909.5 1275.55,-915.5 1269.55,-921.5 1263.55,-921.5 1263.55,-921.5 1039.8254,-921.5 1039.8254,-921.5 1033.8254,-921.5 1027.8254,-915.5 1027.8254,-909.5 1027.8254,-909.5 1027.8254,-819.5 1027.8254,-819.5 1027.8254,-813.5 1033.8254,-807.5 1039.8254,-807.5"/>
<text text-anchor="middle" x="1151.6877" y="-906.3" font-family="Times,serif" font-size="14.00" fill="#000000">Guideline</text>
<polyline fill="none" stroke="#000000" points="1027.8254,-899.5 1275.55,-899.5 "/>
<text text-anchor="start" x="1035.8254" y="-884.3" font-family="Times,serif" font-size="14.00" fill="#000000">id :integer</text>
<text text-anchor="start" x="1035.8254" y="-870.3" font-family="Times,serif" font-size="14.00" fill="#000000">name :character varying</text>
<text text-anchor="start" x="1035.8254" y="-856.3" font-family="Times,serif" font-size="14.00" fill="#000000">kudos :integer</text>
<text text-anchor="start" x="1035.8254" y="-842.3" font-family="Times,serif" font-size="14.00" fill="#000000">created_at :timestamp without time zone</text>
<text text-anchor="start" x="1035.8254" y="-828.3" font-family="Times,serif" font-size="14.00" fill="#000000">updated_at :timestamp without time zone</text>
<text text-anchor="start" x="1035.8254" y="-814.3" font-family="Times,serif" font-size="14.00" fill="#000000">team_id :integer</text>
</g>
<!-- FcmToken -->
<g id="node7" class="node">
<title>FcmToken</title>
<path fill="none" stroke="#000000" d="M1305.8254,-814.5C1305.8254,-814.5 1529.55,-814.5 1529.55,-814.5 1535.55,-814.5 1541.55,-820.5 1541.55,-826.5 1541.55,-826.5 1541.55,-902.5 1541.55,-902.5 1541.55,-908.5 1535.55,-914.5 1529.55,-914.5 1529.55,-914.5 1305.8254,-914.5 1305.8254,-914.5 1299.8254,-914.5 1293.8254,-908.5 1293.8254,-902.5 1293.8254,-902.5 1293.8254,-826.5 1293.8254,-826.5 1293.8254,-820.5 1299.8254,-814.5 1305.8254,-814.5"/>
<text text-anchor="middle" x="1417.6877" y="-899.3" font-family="Times,serif" font-size="14.00" fill="#000000">FcmToken</text>
<polyline fill="none" stroke="#000000" points="1293.8254,-892.5 1541.55,-892.5 "/>
<text text-anchor="start" x="1301.8254" y="-877.3" font-family="Times,serif" font-size="14.00" fill="#000000">id :integer</text>
<text text-anchor="start" x="1301.8254" y="-863.3" font-family="Times,serif" font-size="14.00" fill="#000000">token :character varying</text>
<text text-anchor="start" x="1301.8254" y="-849.3" font-family="Times,serif" font-size="14.00" fill="#000000">user_id :integer</text>
<text text-anchor="start" x="1301.8254" y="-835.3" font-family="Times,serif" font-size="14.00" fill="#000000">created_at :timestamp without time zone</text>
<text text-anchor="start" x="1301.8254" y="-821.3" font-family="Times,serif" font-size="14.00" fill="#000000">updated_at :timestamp without time zone</text>
</g>
<!-- Vote -->
<g id="node8" class="node">
<title>Vote</title>
<path fill="none" stroke="#000000" d="M867.8254,-.5C867.8254,-.5 1091.55,-.5 1091.55,-.5 1097.55,-.5 1103.55,-6.5 1103.55,-12.5 1103.55,-12.5 1103.55,-158.5 1103.55,-158.5 1103.55,-164.5 1097.55,-170.5 1091.55,-170.5 1091.55,-170.5 867.8254,-170.5 867.8254,-170.5 861.8254,-170.5 855.8254,-164.5 855.8254,-158.5 855.8254,-158.5 855.8254,-12.5 855.8254,-12.5 855.8254,-6.5 861.8254,-.5 867.8254,-.5"/>
<text text-anchor="middle" x="979.6877" y="-155.3" font-family="Times,serif" font-size="14.00" fill="#000000">Vote</text>
<polyline fill="none" stroke="#000000" points="855.8254,-148.5 1103.55,-148.5 "/>
<text text-anchor="start" x="863.8254" y="-133.3" font-family="Times,serif" font-size="14.00" fill="#000000">updated_at :timestamp without time zone</text>
<text text-anchor="start" x="863.8254" y="-119.3" font-family="Times,serif" font-size="14.00" fill="#000000">votable_type :character varying</text>
<text text-anchor="start" x="863.8254" y="-105.3" font-family="Times,serif" font-size="14.00" fill="#000000">votable_id :integer</text>
<text text-anchor="start" x="863.8254" y="-91.3" font-family="Times,serif" font-size="14.00" fill="#000000">voter_type :character varying</text>
<text text-anchor="start" x="863.8254" y="-77.3" font-family="Times,serif" font-size="14.00" fill="#000000">voter_id :integer</text>
<text text-anchor="start" x="863.8254" y="-63.3" font-family="Times,serif" font-size="14.00" fill="#000000">vote_flag :boolean</text>
<text text-anchor="start" x="863.8254" y="-49.3" font-family="Times,serif" font-size="14.00" fill="#000000">vote_scope :character varying</text>
<text text-anchor="start" x="863.8254" y="-35.3" font-family="Times,serif" font-size="14.00" fill="#000000">vote_weight :integer</text>
<text text-anchor="start" x="863.8254" y="-21.3" font-family="Times,serif" font-size="14.00" fill="#000000">created_at :timestamp without time zone</text>
<text text-anchor="start" x="863.8254" y="-7.3" font-family="Times,serif" font-size="14.00" fill="#000000">id :integer</text>
</g>
<!-- TeamInviteForm -->
<g id="node9" class="node">
<title>TeamInviteForm</title>
<polygon fill="none" stroke="#000000" points="1559.7454,-842.5 1559.7454,-886.5 1669.6301,-886.5 1669.6301,-842.5 1559.7454,-842.5"/>
<text text-anchor="middle" x="1614.6877" y="-871.3" font-family="Times,serif" font-size="14.00" fill="#000000">TeamInviteForm</text>
<polyline fill="none" stroke="#000000" points="1559.7454,-864.5 1669.6301,-864.5 "/>
<text text-anchor="middle" x="1614.6877" y="-849.3" font-family="Times,serif" font-size="14.00" fill="#000000"> </text>
</g>
<!-- GoalReacher -->
<g id="node10" class="node">
<title>GoalReacher</title>
<polygon fill="none" stroke="#000000" points="1687.1531,-842.5 1687.1531,-886.5 1776.2224,-886.5 1776.2224,-842.5 1687.1531,-842.5"/>
<text text-anchor="middle" x="1731.6877" y="-871.3" font-family="Times,serif" font-size="14.00" fill="#000000">GoalReacher</text>
<polyline fill="none" stroke="#000000" points="1687.1531,-864.5 1776.2224,-864.5 "/>
<text text-anchor="middle" x="1731.6877" y="-849.3" font-family="Times,serif" font-size="14.00" fill="#000000"> </text>
</g>
<!-- Activity -->
<g id="node11" class="node">
<title>Activity</title>
<path fill="none" stroke="#000000" d="M641.8254,-814.5C641.8254,-814.5 865.55,-814.5 865.55,-814.5 871.55,-814.5 877.55,-820.5 877.55,-826.5 877.55,-826.5 877.55,-902.5 877.55,-902.5 877.55,-908.5 871.55,-914.5 865.55,-914.5 865.55,-914.5 641.8254,-914.5 641.8254,-914.5 635.8254,-914.5 629.8254,-908.5 629.8254,-902.5 629.8254,-902.5 629.8254,-826.5 629.8254,-826.5 629.8254,-820.5 635.8254,-814.5 641.8254,-814.5"/>
<text text-anchor="middle" x="753.6877" y="-899.3" font-family="Times,serif" font-size="14.00" fill="#000000">Activity</text>
<polyline fill="none" stroke="#000000" points="629.8254,-892.5 877.55,-892.5 "/>
<text text-anchor="start" x="637.8254" y="-877.3" font-family="Times,serif" font-size="14.00" fill="#000000">id :integer</text>
<text text-anchor="start" x="637.8254" y="-863.3" font-family="Times,serif" font-size="14.00" fill="#000000">name :text</text>
<text text-anchor="start" x="637.8254" y="-849.3" font-family="Times,serif" font-size="14.00" fill="#000000">suggested_amount :integer</text>
<text text-anchor="start" x="637.8254" y="-835.3" font-family="Times,serif" font-size="14.00" fill="#000000">created_at :timestamp without time zone</text>
<text text-anchor="start" x="637.8254" y="-821.3" font-family="Times,serif" font-size="14.00" fill="#000000">updated_at :timestamp without time zone</text>
</g>
<!-- Activity&#45;&gt;Transaction -->
<g id="edge4" class="edge">
<title>Activity&#45;&gt;Transaction</title>
<path fill="none" stroke="#4a0061" d="M758.7033,-805.9362C763.2207,-753.189 770.0357,-673.6131 775.9227,-604.8742"/>
<ellipse fill="none" stroke="#4a0061" cx="758.3352" cy="-810.2343" rx="4" ry="4"/>
<polygon fill="#4a0061" stroke="#4a0061" points="775.9308,-604.779 781.2677,-595.1995 776.3575,-599.7973 776.7841,-594.8155 776.7841,-594.8155 776.7841,-594.8155 776.3575,-599.7973 772.3006,-594.4315 775.9308,-604.779 775.9308,-604.779"/>
</g>
<!-- Activity&#45;&gt;ActsAsVotable::Vote -->
<g id="edge5" class="edge">
<title>Activity&#45;&gt;ActsAsVotable::Vote</title>
<path fill="none" stroke="#15c4e1" d="M679.2619,-809.3063C637.9699,-776.8751 592.7752,-737.7133 581.8118,-714 531.5602,-605.3087 560.7622,-221.0749 570.1214,-113.6109"/>
<ellipse fill="none" stroke="#15c4e1" cx="682.4325" cy="-811.7825" rx="4" ry="4"/>
<polygon fill="#15c4e1" stroke="#15c4e1" points="570.131,-113.5017 575.494,-103.9368 570.5712,-108.5211 571.0115,-103.5406 571.0115,-103.5406 571.0115,-103.5406 570.5712,-108.5211 566.5289,-103.1443 570.131,-113.5017 570.131,-113.5017"/>
<text text-anchor="middle" x="608.1257" y="-463.3" font-family="Times,serif" font-size="14.00" fill="#000000">votes_for</text>
</g>
<!-- Team -->
<g id="node12" class="node">
<title>Team</title>
<path fill="none" stroke="#000000" d="M1805.8806,-751.5C1805.8806,-751.5 2061.4949,-751.5 2061.4949,-751.5 2067.4949,-751.5 2073.4949,-757.5 2073.4949,-763.5 2073.4949,-763.5 2073.4949,-965.5 2073.4949,-965.5 2073.4949,-971.5 2067.4949,-977.5 2061.4949,-977.5 2061.4949,-977.5 1805.8806,-977.5 1805.8806,-977.5 1799.8806,-977.5 1793.8806,-971.5 1793.8806,-965.5 1793.8806,-965.5 1793.8806,-763.5 1793.8806,-763.5 1793.8806,-757.5 1799.8806,-751.5 1805.8806,-751.5"/>
<text text-anchor="middle" x="1933.6877" y="-962.3" font-family="Times,serif" font-size="14.00" fill="#000000">Team</text>
<polyline fill="none" stroke="#000000" points="1793.8806,-955.5 2073.4949,-955.5 "/>
<text text-anchor="start" x="1801.8806" y="-940.3" font-family="Times,serif" font-size="14.00" fill="#000000">channel_id :character varying</text>
<text text-anchor="start" x="1801.8806" y="-926.3" font-family="Times,serif" font-size="14.00" fill="#000000">name :character varying</text>
<text text-anchor="start" x="1801.8806" y="-912.3" font-family="Times,serif" font-size="14.00" fill="#000000">general_info :text</text>
<text text-anchor="start" x="1801.8806" y="-898.3" font-family="Times,serif" font-size="14.00" fill="#000000">created_at :timestamp without time zone</text>
<text text-anchor="start" x="1801.8806" y="-884.3" font-family="Times,serif" font-size="14.00" fill="#000000">updated_at :timestamp without time zone</text>
<text text-anchor="start" x="1801.8806" y="-870.3" font-family="Times,serif" font-size="14.00" fill="#000000">logo_file_name :character varying</text>
<text text-anchor="start" x="1801.8806" y="-856.3" font-family="Times,serif" font-size="14.00" fill="#000000">logo_content_type :character varying</text>
<text text-anchor="start" x="1801.8806" y="-842.3" font-family="Times,serif" font-size="14.00" fill="#000000">logo_file_size :integer</text>
<text text-anchor="start" x="1801.8806" y="-828.3" font-family="Times,serif" font-size="14.00" fill="#000000">logo_updated_at :timestamp without time zone</text>
<text text-anchor="start" x="1801.8806" y="-814.3" font-family="Times,serif" font-size="14.00" fill="#000000">slug :character varying</text>
<text text-anchor="start" x="1801.8806" y="-800.3" font-family="Times,serif" font-size="14.00" fill="#000000">preferences :json</text>
<text text-anchor="start" x="1801.8806" y="-786.3" font-family="Times,serif" font-size="14.00" fill="#000000">slack_team_id :character varying</text>
<text text-anchor="start" x="1801.8806" y="-772.3" font-family="Times,serif" font-size="14.00" fill="#000000">slack_bot_access_token :character varying</text>
<text text-anchor="start" x="1801.8806" y="-758.3" font-family="Times,serif" font-size="14.00" fill="#000000">id :integer</text>
</g>
<!-- Export -->
<g id="node13" class="node">
<title>Export</title>
<path fill="none" stroke="#000000" d="M2103.7737,-786.5C2103.7737,-786.5 2351.6018,-786.5 2351.6018,-786.5 2357.6018,-786.5 2363.6018,-792.5 2363.6018,-798.5 2363.6018,-798.5 2363.6018,-930.5 2363.6018,-930.5 2363.6018,-936.5 2357.6018,-942.5 2351.6018,-942.5 2351.6018,-942.5 2103.7737,-942.5 2103.7737,-942.5 2097.7737,-942.5 2091.7737,-936.5 2091.7737,-930.5 2091.7737,-930.5 2091.7737,-798.5 2091.7737,-798.5 2091.7737,-792.5 2097.7737,-786.5 2103.7737,-786.5"/>
<text text-anchor="middle" x="2227.6877" y="-927.3" font-family="Times,serif" font-size="14.00" fill="#000000">Export</text>
<polyline fill="none" stroke="#000000" points="2091.7737,-920.5 2363.6018,-920.5 "/>
<text text-anchor="start" x="2099.7737" y="-905.3" font-family="Times,serif" font-size="14.00" fill="#000000">zip_updated_at :timestamp without time zone</text>
<text text-anchor="start" x="2099.7737" y="-891.3" font-family="Times,serif" font-size="14.00" fill="#000000">uuid :character varying</text>
<text text-anchor="start" x="2099.7737" y="-877.3" font-family="Times,serif" font-size="14.00" fill="#000000">user_id :integer</text>
<text text-anchor="start" x="2099.7737" y="-863.3" font-family="Times,serif" font-size="14.00" fill="#000000">created_at :timestamp without time zone</text>
<text text-anchor="start" x="2099.7737" y="-849.3" font-family="Times,serif" font-size="14.00" fill="#000000">updated_at :timestamp without time zone</text>
<text text-anchor="start" x="2099.7737" y="-835.3" font-family="Times,serif" font-size="14.00" fill="#000000">zip_file_name :character varying</text>
<text text-anchor="start" x="2099.7737" y="-821.3" font-family="Times,serif" font-size="14.00" fill="#000000">zip_content_type :character varying</text>
<text text-anchor="start" x="2099.7737" y="-807.3" font-family="Times,serif" font-size="14.00" fill="#000000">zip_file_size :integer</text>
<text text-anchor="start" x="2099.7737" y="-793.3" font-family="Times,serif" font-size="14.00" fill="#000000">id :integer</text>
</g>
<!-- TransactionAdder -->
<g id="node14" class="node">
<title>TransactionAdder</title>
<polygon fill="none" stroke="#000000" points="2381.3958,-842.5 2381.3958,-886.5 2497.9797,-886.5 2497.9797,-842.5 2381.3958,-842.5"/>
<text text-anchor="middle" x="2439.6877" y="-871.3" font-family="Times,serif" font-size="14.00" fill="#000000">TransactionAdder</text>
<polyline fill="none" stroke="#000000" points="2381.3958,-864.5 2497.9797,-864.5 "/>
<text text-anchor="middle" x="2439.6877" y="-849.3" font-family="Times,serif" font-size="14.00" fill="#000000"> </text>
</g>
<!-- Transaction&#45;&gt;Vote -->
<g id="edge7" class="edge">
<title>Transaction&#45;&gt;Vote</title>
<path fill="none" stroke="#53939a" d="M855.2569,-333.0656C880.7101,-282.4242 909.0943,-225.9516 932.3186,-179.7449"/>
<ellipse fill="none" stroke="#53939a" cx="853.4173" cy="-336.7256" rx="4" ry="4"/>
<polygon fill="#53939a" stroke="#53939a" points="932.4014,-179.5801 940.913,-172.6661 934.6468,-175.1126 936.8923,-170.6452 936.8923,-170.6452 936.8923,-170.6452 934.6468,-175.1126 932.8715,-168.6243 932.4014,-179.5801 932.4014,-179.5801"/>
</g>
<!-- Transaction&#45;&gt;ActsAsVotable::Vote -->
<g id="edge6" class="edge">
<title>Transaction&#45;&gt;ActsAsVotable::Vote</title>
<path fill="none" stroke="#15ab2d" d="M712.0432,-333.0991C666.923,-252.932 613.5722,-158.1412 587.9381,-112.596"/>
<ellipse fill="none" stroke="#15ab2d" cx="714.1339" cy="-336.8137" rx="4" ry="4"/>
<polygon fill="#15ab2d" stroke="#15ab2d" points="587.8066,-112.3622 586.8233,-101.4405 585.3542,-108.0049 582.9017,-103.6477 582.9017,-103.6477 582.9017,-103.6477 585.3542,-108.0049 578.9802,-105.8548 587.8066,-112.3622 587.8066,-112.3622"/>
<text text-anchor="middle" x="662.1257" y="-191.8" font-family="Times,serif" font-size="14.00" fill="#000000">votes_for</text>
</g>
<!-- TeamInvite -->
<g id="node16" class="node">
<title>TeamInvite</title>
<path fill="none" stroke="#000000" d="M2527.5046,-807.5C2527.5046,-807.5 2755.8708,-807.5 2755.8708,-807.5 2761.8708,-807.5 2767.8708,-813.5 2767.8708,-819.5 2767.8708,-819.5 2767.8708,-909.5 2767.8708,-909.5 2767.8708,-915.5 2761.8708,-921.5 2755.8708,-921.5 2755.8708,-921.5 2527.5046,-921.5 2527.5046,-921.5 2521.5046,-921.5 2515.5046,-915.5 2515.5046,-909.5 2515.5046,-909.5 2515.5046,-819.5 2515.5046,-819.5 2515.5046,-813.5 2521.5046,-807.5 2527.5046,-807.5"/>
<text text-anchor="middle" x="2641.6877" y="-906.3" font-family="Times,serif" font-size="14.00" fill="#000000">TeamInvite</text>
<polyline fill="none" stroke="#000000" points="2515.5046,-899.5 2767.8708,-899.5 "/>
<text text-anchor="start" x="2523.5046" y="-884.3" font-family="Times,serif" font-size="14.00" fill="#000000">id :integer</text>
<text text-anchor="start" x="2523.5046" y="-870.3" font-family="Times,serif" font-size="14.00" fill="#000000">team_id :integer</text>
<text text-anchor="start" x="2523.5046" y="-856.3" font-family="Times,serif" font-size="14.00" fill="#000000">sent_at :timestamp without time zone</text>
<text text-anchor="start" x="2523.5046" y="-842.3" font-family="Times,serif" font-size="14.00" fill="#000000">accepted_at :timestamp without time zone</text>
<text text-anchor="start" x="2523.5046" y="-828.3" font-family="Times,serif" font-size="14.00" fill="#000000">declined_at :timestamp without time zone</text>
<text text-anchor="start" x="2523.5046" y="-814.3" font-family="Times,serif" font-size="14.00" fill="#000000">email :character varying</text>
</g>
<!-- TeamMember -->
<g id="node17" class="node">
<title>TeamMember</title>
<path fill="none" stroke="#000000" d="M2797.8254,-786.5C2797.8254,-786.5 3021.55,-786.5 3021.55,-786.5 3027.55,-786.5 3033.55,-792.5 3033.55,-798.5 3033.55,-798.5 3033.55,-930.5 3033.55,-930.5 3033.55,-936.5 3027.55,-942.5 3021.55,-942.5 3021.55,-942.5 2797.8254,-942.5 2797.8254,-942.5 2791.8254,-942.5 2785.8254,-936.5 2785.8254,-930.5 2785.8254,-930.5 2785.8254,-798.5 2785.8254,-798.5 2785.8254,-792.5 2791.8254,-786.5 2797.8254,-786.5"/>
<text text-anchor="middle" x="2909.6877" y="-927.3" font-family="Times,serif" font-size="14.00" fill="#000000">TeamMember</text>
<polyline fill="none" stroke="#000000" points="2785.8254,-920.5 3033.55,-920.5 "/>
<text text-anchor="start" x="2793.8254" y="-905.3" font-family="Times,serif" font-size="14.00" fill="#000000">slack_name :character varying</text>
<text text-anchor="start" x="2793.8254" y="-891.3" font-family="Times,serif" font-size="14.00" fill="#000000">team_id :integer</text>
<text text-anchor="start" x="2793.8254" y="-877.3" font-family="Times,serif" font-size="14.00" fill="#000000">user_id :integer</text>
<text text-anchor="start" x="2793.8254" y="-863.3" font-family="Times,serif" font-size="14.00" fill="#000000">admin :boolean</text>
<text text-anchor="start" x="2793.8254" y="-849.3" font-family="Times,serif" font-size="14.00" fill="#000000">created_at :timestamp without time zone</text>
<text text-anchor="start" x="2793.8254" y="-835.3" font-family="Times,serif" font-size="14.00" fill="#000000">updated_at :timestamp without time zone</text>
<text text-anchor="start" x="2793.8254" y="-821.3" font-family="Times,serif" font-size="14.00" fill="#000000">slack_id :character varying</text>
<text text-anchor="start" x="2793.8254" y="-807.3" font-family="Times,serif" font-size="14.00" fill="#000000">slack_username :character varying</text>
<text text-anchor="start" x="2793.8254" y="-793.3" font-family="Times,serif" font-size="14.00" fill="#000000">id :integer</text>
</g>
<!-- User -->
<g id="node18" class="node">
<title>User</title>
<path fill="none" stroke="#000000" d="M962.053,-221.5C962.053,-221.5 1257.3225,-221.5 1257.3225,-221.5 1263.3225,-221.5 1269.3225,-227.5 1269.3225,-233.5 1269.3225,-233.5 1269.3225,-701.5 1269.3225,-701.5 1269.3225,-707.5 1263.3225,-713.5 1257.3225,-713.5 1257.3225,-713.5 962.053,-713.5 962.053,-713.5 956.053,-713.5 950.053,-707.5 950.053,-701.5 950.053,-701.5 950.053,-233.5 950.053,-233.5 950.053,-227.5 956.053,-221.5 962.053,-221.5"/>
<text text-anchor="middle" x="1109.6877" y="-698.3" font-family="Times,serif" font-size="14.00" fill="#000000">User</text>
<polyline fill="none" stroke="#000000" points="950.053,-691.5 1269.3225,-691.5 "/>
<text text-anchor="start" x="958.053" y="-676.3" font-family="Times,serif" font-size="14.00" fill="#000000">company_user :boolean</text>
<text text-anchor="start" x="958.053" y="-662.3" font-family="Times,serif" font-size="14.00" fill="#000000">name :character varying</text>
<text text-anchor="start" x="958.053" y="-648.3" font-family="Times,serif" font-size="14.00" fill="#000000">created_at :timestamp without time zone</text>
<text text-anchor="start" x="958.053" y="-634.3" font-family="Times,serif" font-size="14.00" fill="#000000">updated_at :timestamp without time zone</text>
<text text-anchor="start" x="958.053" y="-620.3" font-family="Times,serif" font-size="14.00" fill="#000000">email :character varying</text>
<text text-anchor="start" x="958.053" y="-606.3" font-family="Times,serif" font-size="14.00" fill="#000000">encrypted_password :character varying</text>
<text text-anchor="start" x="958.053" y="-592.3" font-family="Times,serif" font-size="14.00" fill="#000000">reset_password_token :character varying</text>
<text text-anchor="start" x="958.053" y="-578.3" font-family="Times,serif" font-size="14.00" fill="#000000">reset_password_sent_at :timestamp without time zone</text>
<text text-anchor="start" x="958.053" y="-564.3" font-family="Times,serif" font-size="14.00" fill="#000000">remember_created_at :timestamp without time zone</text>
<text text-anchor="start" x="958.053" y="-550.3" font-family="Times,serif" font-size="14.00" fill="#000000">sign_in_count :integer</text>
<text text-anchor="start" x="958.053" y="-536.3" font-family="Times,serif" font-size="14.00" fill="#000000">current_sign_in_at :timestamp without time zone</text>
<text text-anchor="start" x="958.053" y="-522.3" font-family="Times,serif" font-size="14.00" fill="#000000">last_sign_in_at :timestamp without time zone</text>
<text text-anchor="start" x="958.053" y="-508.3" font-family="Times,serif" font-size="14.00" fill="#000000">current_sign_in_ip :inet</text>
<text text-anchor="start" x="958.053" y="-494.3" font-family="Times,serif" font-size="14.00" fill="#000000">last_sign_in_ip :inet</text>
<text text-anchor="start" x="958.053" y="-480.3" font-family="Times,serif" font-size="14.00" fill="#000000">confirmation_token :character varying</text>
<text text-anchor="start" x="958.053" y="-466.3" font-family="Times,serif" font-size="14.00" fill="#000000">confirmed_at :timestamp without time zone</text>
<text text-anchor="start" x="958.053" y="-452.3" font-family="Times,serif" font-size="14.00" fill="#000000">confirmation_sent_at :timestamp without time zone</text>
<text text-anchor="start" x="958.053" y="-438.3" font-family="Times,serif" font-size="14.00" fill="#000000">unconfirmed_email :character varying</text>
<text text-anchor="start" x="958.053" y="-424.3" font-family="Times,serif" font-size="14.00" fill="#000000">failed_attempts :integer</text>
<text text-anchor="start" x="958.053" y="-410.3" font-family="Times,serif" font-size="14.00" fill="#000000">unlock_token :character varying</text>
<text text-anchor="start" x="958.053" y="-396.3" font-family="Times,serif" font-size="14.00" fill="#000000">locked_at :timestamp without time zone</text>
<text text-anchor="start" x="958.053" y="-382.3" font-family="Times,serif" font-size="14.00" fill="#000000">provider :character varying</text>
<text text-anchor="start" x="958.053" y="-368.3" font-family="Times,serif" font-size="14.00" fill="#000000">uid :character varying</text>
<text text-anchor="start" x="958.053" y="-354.3" font-family="Times,serif" font-size="14.00" fill="#000000">avatar_url :character varying</text>
<text text-anchor="start" x="958.053" y="-340.3" font-family="Times,serif" font-size="14.00" fill="#000000">slack_name :character varying</text>
<text text-anchor="start" x="958.053" y="-326.3" font-family="Times,serif" font-size="14.00" fill="#000000">admin :boolean</text>
<text text-anchor="start" x="958.053" y="-312.3" font-family="Times,serif" font-size="14.00" fill="#000000">api_token :character varying</text>
<text text-anchor="start" x="958.053" y="-298.3" font-family="Times,serif" font-size="14.00" fill="#000000">deactivated_at :timestamp without time zone</text>
<text text-anchor="start" x="958.053" y="-284.3" font-family="Times,serif" font-size="14.00" fill="#000000">preferences :json</text>
<text text-anchor="start" x="958.053" y="-270.3" font-family="Times,serif" font-size="14.00" fill="#000000">slack_id :character varying</text>
<text text-anchor="start" x="958.053" y="-256.3" font-family="Times,serif" font-size="14.00" fill="#000000">slack_username :character varying</text>
<text text-anchor="start" x="958.053" y="-242.3" font-family="Times,serif" font-size="14.00" fill="#000000">restricted :boolean</text>
<text text-anchor="start" x="958.053" y="-228.3" font-family="Times,serif" font-size="14.00" fill="#000000">id :integer</text>
</g>
<!-- User&#45;&gt;Vote -->
<g id="edge8" class="edge">
<title>User&#45;&gt;Vote</title>
<path fill="none" stroke="#5409de" d="M1023.2123,-213.3953C1019.3217,-201.9629 1015.5467,-190.8702 1011.9525,-180.3086"/>
<ellipse fill="none" stroke="#5409de" cx="1024.5982" cy="-217.4678" rx="4" ry="4"/>
<polygon fill="#5409de" stroke="#5409de" points="1011.926,-180.2308 1012.9643,-169.3141 1010.3151,-175.4973 1008.7043,-170.7639 1008.7043,-170.7639 1008.7043,-170.7639 1010.3151,-175.4973 1004.4442,-172.2137 1011.926,-180.2308 1011.926,-180.2308"/>
</g>
</g>
</svg>
