<svg height="1076pt" viewBox="0 0 2024.6 1075.6" width="2025pt" xmlns="http://www.w3.org/2000/svg"><g transform="translate(28.8 1046.8)"><path d="m-28.8 28.8v-1075.6h2024.6v1075.6z" fill="#fff"/><text font-family="Arial BoldMT" font-size="13" text-anchor="middle" x="983.5" y="-1003.6">Class Diagram PGP</text><path d="m146-26.5h120c6 0 12-6 12-12v-31c0-6-6-12-12-12h-120c-6 0-12 6-12 12v31c0 6 6 12 12 12" fill="none" stroke="#000"/><text font-family="Arial BoldMT" font-size="11" x="138.884" y="-68.2">ActiveStorage::Attachment</text><path d="m134-62.5h144" fill="none" stroke="#000"/><text font-family="ArialMT" font-size="10" x="141" y="-49.5">name</text><text fill="#999" font-family="Arial ItalicMT" font-size="10" x="168.793" y="-49.5">string ∗</text><text font-family="ArialMT" font-size="10" x="141" y="-36.5">record_type</text><text fill="#999" font-family="Arial ItalicMT" font-size="10" x="196.586" y="-36.5">string ∗</text><path d="m12-164h120c6 0 12-6 12-12v-83c0-6-6-12-12-12h-120c-6 0-12 6-12 12v83c0 6 6 12 12 12" fill="none" stroke="#000"/><text font-family="Arial BoldMT" font-size="11" x="21.6951" y="-257.7">ActiveStorage::Blob</text><path d="m0-252h144" fill="none" stroke="#000"/><text font-family="ArialMT" font-size="10" x="7" y="-239">byte_size</text><text fill="#999" font-family="Arial ItalicMT" font-size="10" x="52.0244" y="-239">integer (8) ∗</text><text font-family="ArialMT" font-size="10" x="7" y="-226">checksum</text><text fill="#999" font-family="Arial ItalicMT" font-size="10" x="54.793" y="-226">string ∗</text><text font-family="ArialMT" font-size="10" x="7" y="-213">content_type</text><text fill="#999" font-family="Arial ItalicMT" font-size="10" x="67.0439" y="-213">string</text><text font-family="ArialMT" font-size="10" x="7" y="-200">filename</text><text fill="#999" font-family="Arial ItalicMT" font-size="10" x="47.5762" y="-200">string ∗</text><text font-family="ArialMT" font-size="10" x="7" y="-187">key</text><text fill="#999" font-family="Arial ItalicMT" font-size="10" x="25.3398" y="-187">string ∗</text><text font-family="ArialMT" font-size="10" x="7" y="-174">metadata</text><text fill="#999" font-family="Arial ItalicMT" font-size="10" x="51.4727" y="-174">text</text><path d="m119.101-159.733c20.725 24.979 44.245 53.326 61.584 74.2234" fill="none" stroke="#000"/><ellipse cx="117.409" cy="-161.772" fill="none" rx="2.40002" ry="2.40002" stroke="#000"/><ellipse cx="182.317" cy="-83.5438" rx="2.40002" ry="2.40002" stroke="#000"/><path d="m149.094-246.199c14.053 3.64 23.906 13.206 23.906 28.699s-9.853 25.059-23.906 28.699" fill="none" stroke="#000" stroke-dasharray="1 5"/><ellipse cx="146.527" cy="-246.724" fill="none" rx="2.40001" ry="2.40001" stroke="#000"/><ellipse cx="146.527" cy="-188.276" fill="none" rx="2.40001" ry="2.40001" stroke="#000"/><path d="m298-522.5h120c6 0 12-6 12-12v-18c0-6-6-12-12-12h-120c-6 0-12 6-12 12v18c0 6 6 12 12 12" fill="none" stroke="#000"/><text font-family="Arial BoldMT" font-size="11" x="338.582" y="-551.2">Activity</text><path d="m286-545.5h144" fill="none" stroke="#000"/><text font-family="ArialMT" font-size="10" x="293" y="-532">suggested_amount</text><text fill="#999" font-family="Arial ItalicMT" font-size="10" x="380.842" y="-532">integer</text><path d="m339-.5h120c6 0 12-6 12-12v-83c0-6-6-12-12-12h-120c-6 0-12 6-12 12v83c0 6 6 12 12 12" fill="none" stroke="#000"/><text font-family="Arial BoldMT" font-size="11" x="347.462" y="-94.2">ActsAsVotable::Vote</text><path d="m327-88.5h144" fill="none" stroke="#000"/><text font-family="ArialMT" font-size="10" x="334" y="-75.5">votable_type</text><text fill="#999" font-family="Arial ItalicMT" font-size="10" x="393.487" y="-75.5">string</text><text font-family="ArialMT" font-size="10" x="334" y="-62.5">vote_flag</text><text fill="#999" font-family="Arial ItalicMT" font-size="10" x="377.364" y="-62.5">boolean</text><text font-family="ArialMT" font-size="10" x="334" y="-49.5">vote_scope</text><text fill="#999" font-family="Arial ItalicMT" font-size="10" x="387.926" y="-49.5">string</text><text font-family="ArialMT" font-size="10" x="334" y="-36.5">vote_weight</text><text fill="#999" font-family="Arial ItalicMT" font-size="10" x="390.147" y="-36.5">integer</text><text font-family="ArialMT" font-size="10" x="334" y="-23.5">voter_id</text><text fill="#999" font-family="Arial ItalicMT" font-size="10" x="372.354" y="-23.5">integer ∗</text><text font-family="ArialMT" font-size="10" x="334" y="-10.5">voter_type</text><text fill="#999" font-family="Arial ItalicMT" font-size="10" x="383.473" y="-10.5">string</text><path d="m344.849-517.884c-32.586 64.555-110.209 242.785-49.849 373.884 5.821 12.643 14.422 24.16 24.227 34.404" fill="none" stroke="#000"/><ellipse cx="346.026" cy="-520.195" fill="none" rx="2.40002" ry="2.40002" stroke="#000"/><ellipse cx="325.223" cy="-103.697" fill="none" rx="2.40001" ry="2.40001" stroke="#000"/><path d="m320.708-111.085 2.804 5.705-5.75-2.712z" stroke="#000"/><path d="m321.5-144.5h155c6 0 12-6 12-12v-122c0-6-6-12-12-12h-155c-6 0-12 6-12 12v122c0 6 6 12 12 12" fill="none" stroke="#000"/><text font-family="Arial BoldMT" font-size="11" x="385.995" y="-277.2">Post</text><path d="m309.5-271.5h179" fill="none" stroke="#000"/><text font-family="ArialMT" font-size="10" x="317" y="-258">amount</text><text fill="#999" font-family="Arial ItalicMT" font-size="10" x="353.133" y="-258">integer ∗</text><text font-family="ArialMT" font-size="10" x="317" y="-245">image_content_type</text><text fill="#999" font-family="Arial ItalicMT" font-size="10" x="409.842" y="-245">string</text><text font-family="ArialMT" font-size="10" x="317" y="-232">image_file_name</text><text fill="#999" font-family="Arial ItalicMT" font-size="10" x="395.936" y="-232">string</text><text font-family="ArialMT" font-size="10" x="317" y="-219">image_file_size</text><text fill="#999" font-family="Arial ItalicMT" font-size="10" x="388.704" y="-219">integer</text><text font-family="ArialMT" font-size="10" x="317" y="-206">image_updated_at</text><text fill="#999" font-family="Arial ItalicMT" font-size="10" x="402.625" y="-206">datetime</text><text font-family="ArialMT" font-size="10" x="317" y="-193">message</text><text fill="#999" font-family="Arial ItalicMT" font-size="10" x="360.354" y="-193">string ∗</text><text font-family="ArialMT" font-size="10" x="316.946" y="-180">slack_kudos_left_on_creation</text><text fill="#999" font-family="Arial ItalicMT" font-size="10" x="451.478" y="-180">integer</text><text font-family="ArialMT" font-size="10" x="317" y="-167">slack_reaction_created_at</text><text fill="#999" font-family="Arial ItalicMT" font-size="10" x="436.517" y="-167">string</text><text font-family="ArialMT" font-size="10" x="317" y="-154">slack_transaction_updated_at</text><text fill="#999" font-family="Arial ItalicMT" font-size="10" x="452.649" y="-154">string</text><path d="m361.201-517.206c5.795 45.795 18.261 144.312 27.297 215.713" fill="none" stroke="#000"/><ellipse cx="360.866" cy="-519.851" fill="none" rx="2.40001" ry="2.40001" stroke="#000"/><ellipse cx="389.559" cy="-293.103" fill="none" rx="2.4" ry="2.4" stroke="#000"/><path d="m390.588-301.7-1.33 6.216-2.837-5.689z" stroke="#000"/><path d="m1629-490h120c6 0 12-6 12-12v-83c0-6-6-12-12-12h-120c-6 0-12 6-12 12v83c0 6 6 12 12 12" fill="none" stroke="#000"/><text font-family="Arial BoldMT" font-size="11" x="1623.72" y="-583.7">Doorkeeper::AccessGrant</text><path d="m1617-578h144" fill="none" stroke="#000"/><text font-family="ArialMT" font-size="10" x="1624" y="-565">expires_in</text><text fill="#999" font-family="Arial ItalicMT" font-size="10" x="1672.36" y="-565">integer ∗</text><text font-family="ArialMT" font-size="10" x="1624" y="-552">redirect_uri</text><text fill="#999" font-family="Arial ItalicMT" font-size="10" x="1676.8" y="-552">text ∗</text><text font-family="ArialMT" font-size="10" x="1624" y="-539">resource_owner_id</text><text fill="#999" font-family="Arial ItalicMT" font-size="10" x="1711.83" y="-539">integer ∗</text><text font-family="ArialMT" font-size="10" x="1624" y="-526">revoked_at</text><text fill="#999" font-family="Arial ItalicMT" font-size="10" x="1676.26" y="-526">datetime</text><text font-family="ArialMT" font-size="10" x="1624" y="-513">scopes</text><text fill="#999" font-family="Arial ItalicMT" font-size="10" x="1658.46" y="-513">string</text><text font-family="ArialMT" font-size="10" x="1624" y="-500">token</text><text fill="#999" font-family="Arial ItalicMT" font-size="10" x="1651.24" y="-500">string ∗ U</text><path d="m1802.5-483.5h127c6 0 12-6 12-12v-96c0-6-6-12-12-12h-127c-6 0-12 6-12 12v96c0 6 6 12 12 12" fill="none" stroke="#000"/><text font-family="Arial BoldMT" font-size="11" x="1799.8" y="-590.2">Doorkeeper::AccessToken</text><path d="m1790.5-584.5h151" fill="none" stroke="#000"/><text font-family="ArialMT" font-size="10" x="1798" y="-571">expires_in</text><text fill="#999" font-family="Arial ItalicMT" font-size="10" x="1846.36" y="-571">integer</text><text font-family="ArialMT" font-size="10" x="1797.66" y="-558">previous_refresh_token</text><text fill="#999" font-family="Arial ItalicMT" font-size="10" x="1904.95" y="-558">string ∗</text><text font-family="ArialMT" font-size="10" x="1798" y="-545">refresh_token</text><text fill="#999" font-family="Arial ItalicMT" font-size="10" x="1861.93" y="-545">string U</text><text font-family="ArialMT" font-size="10" x="1798" y="-532">resource_owner_id</text><text fill="#999" font-family="Arial ItalicMT" font-size="10" x="1885.83" y="-532">integer</text><text font-family="ArialMT" font-size="10" x="1798" y="-519">revoked_at</text><text fill="#999" font-family="Arial ItalicMT" font-size="10" x="1850.26" y="-519">datetime</text><text font-family="ArialMT" font-size="10" x="1798" y="-506">scopes</text><text fill="#999" font-family="Arial ItalicMT" font-size="10" x="1832.46" y="-506">string</text><text font-family="ArialMT" font-size="10" x="1798" y="-493">token</text><text fill="#999" font-family="Arial ItalicMT" font-size="10" x="1825.24" y="-493">string ∗ U</text><path d="m1806-842h120c6 0 12-6 12-12v-70c0-6-6-12-12-12h-120c-6 0-12 6-12 12v70c0 6 6 12 12 12" fill="none" stroke="#000"/><text font-family="Arial BoldMT" font-size="11" x="1805.3" y="-922.7">Doorkeeper::Application</text><path d="m1794-917h144" fill="none" stroke="#000"/><text font-family="ArialMT" font-size="10" x="1801" y="-903.5">name</text><text fill="#999" font-family="Arial ItalicMT" font-size="10" x="1828.79" y="-903.5">string ∗</text><text font-family="ArialMT" font-size="10" x="1801" y="-890.5">redirect_uri</text><text fill="#999" font-family="Arial ItalicMT" font-size="10" x="1853.8" y="-890.5">text ∗</text><text font-family="ArialMT" font-size="10" x="1801" y="-877.5">scopes</text><text fill="#999" font-family="Arial ItalicMT" font-size="10" x="1835.46" y="-877.5">string ∗</text><text font-family="ArialMT" font-size="10" x="1801" y="-864.5">secret</text><text fill="#999" font-family="Arial ItalicMT" font-size="10" x="1831.01" y="-864.5">string ∗</text><text font-family="ArialMT" font-size="10" x="1801" y="-851.5">uid</text><text fill="#999" font-family="Arial ItalicMT" font-size="10" x="1817.12" y="-851.5">string ∗ U</text><path d="m1826.84-838.021c-16.93 22.974-36.17 51.065-50.84 78.021-26.78 49.217-50.1 108.449-65.84 152.35" fill="none" stroke="#000"/><ellipse cx="1828.33" cy="-840.027" fill="none" rx="2.40002" ry="2.40002" stroke="#000"/><ellipse cx="1707.32" cy="-599.662" rx="2.40001" ry="2.40001" stroke="#000"/><path d="m1712.11-606.876-3.99 4.952.03-6.357z" stroke="#000"/><path d="m1866-836.515v221.818" fill="none" stroke="#000"/><ellipse cx="1866" cy="-839.274" fill="none" rx="2.4" ry="2.4" stroke="#000"/><ellipse cx="1866" cy="-605.991" fill="none" rx="2.4" ry="2.4" stroke="#000"/><path d="m1868.1-614.391-2.1 6-2.1-6z" stroke="#000"/><path d="m1898.24-939.487c32.58-29.385 68.76-12.556 68.76 50.487 0 59.98-32.75 78.127-63.99 54.442" fill="none" stroke="#000" stroke-dasharray="1 5"/><ellipse cx="1896.43" cy="-937.751" fill="none" rx="2.40002" ry="2.40002" stroke="#000"/><ellipse cx="1896.49" cy="-840.32" fill="none" rx="2.40001" ry="2.40001" stroke="#000"/><path d="m1901.39-833.182-3.1-5.548 5.88 2.401z" stroke="#000"/><path d="m762-170.5h120c6 0 12-6 12-12v-70c0-6-6-12-12-12h-120c-6 0-12 6-12 12v70c0 6 6 12 12 12" fill="none" stroke="#000"/><text font-family="Arial BoldMT" font-size="11" x="804.104" y="-251.2">Export</text><path d="m750-245.5h144" fill="none" stroke="#000"/><text font-family="ArialMT" font-size="10" x="757" y="-232">uuid</text><text fill="#999" font-family="Arial ItalicMT" font-size="10" x="778.685" y="-232">string</text><text font-family="ArialMT" font-size="10" x="757" y="-219">zip_content_type</text><text fill="#999" font-family="Arial ItalicMT" font-size="10" x="835.389" y="-219">string</text><text font-family="ArialMT" font-size="10" x="757" y="-206">zip_file_name</text><text fill="#999" font-family="Arial ItalicMT" font-size="10" x="821.482" y="-206">string</text><text font-family="ArialMT" font-size="10" x="757" y="-193">zip_file_size</text><text fill="#999" font-family="Arial ItalicMT" font-size="10" x="814.251" y="-193">integer</text><text font-family="ArialMT" font-size="10" x="757" y="-180">zip_updated_at</text><text fill="#999" font-family="Arial ItalicMT" font-size="10" x="828.172" y="-180">datetime</text><path d="m935-196.5h120c6 0 12-6 12-12v-18c0-6-6-12-12-12h-120c-6 0-12 6-12 12v18c0 6 6 12 12 12" fill="none" stroke="#000"/><text font-family="Arial BoldMT" font-size="11" x="967.632" y="-225.2">FcmToken</text><path d="m923-219.5h144" fill="none" stroke="#000"/><text font-family="ArialMT" font-size="10" x="930" y="-206">token</text><text fill="#999" font-family="Arial ItalicMT" font-size="10" x="957.241" y="-206">string U</text><path d="m530-183.5h120c6 0 12-6 12-12v-44c0-6-6-12-12-12h-120c-6 0-12 6-12 12v44c0 6 6 12 12 12" fill="none" stroke="#000"/><text font-family="Arial BoldMT" font-size="11" x="576.382" y="-238.2">Goal</text><path d="m518-232.5h144" fill="none" stroke="#000"/><text font-family="ArialMT" font-size="10" x="525" y="-219">achieved_on</text><text fill="#999" font-family="Arial ItalicMT" font-size="10" x="584.492" y="-219">date</text><text font-family="ArialMT" font-size="10" x="525" y="-206">amount</text><text fill="#999" font-family="Arial ItalicMT" font-size="10" x="561.133" y="-206">integer ∗</text><text font-family="ArialMT" font-size="10" x="525" y="-193">name</text><text fill="#999" font-family="Arial ItalicMT" font-size="10" x="552.793" y="-193">string (32) ∗</text><path d="m547.21-180.319c-22.814 19.29-51.472 43.523-77.494 65.525" fill="none" stroke="#000"/><ellipse cx="549.055" cy="-181.879" fill="none" rx="2.40002" ry="2.40002" stroke="#000"/><ellipse cx="463.204" cy="-109.288" fill="none" rx="2.40001" ry="2.40001" stroke="#000"/><path d="m470.974-113.108-5.937 2.271 3.225-5.478z" stroke="#000"/><path d="m1283-516h120c6 0 12-6 12-12v-31c0-6-6-12-12-12h-120c-6 0-12 6-12 12v31c0 6 6 12 12 12" fill="none" stroke="#000"/><text font-family="Arial BoldMT" font-size="11" x="1317.76" y="-557.7">Guideline</text><path d="m1271-552h144" fill="none" stroke="#000"/><text font-family="ArialMT" font-size="10" x="1278" y="-539">kudos</text><text fill="#999" font-family="Arial ItalicMT" font-size="10" x="1307.46" y="-539">integer ∗</text><text font-family="ArialMT" font-size="10" x="1278" y="-526">name</text><text fill="#999" font-family="Arial ItalicMT" font-size="10" x="1305.79" y="-526">string ∗</text><path d="m530-522.5h120c6 0 12-6 12-12v-18c0-6-6-12-12-12h-120c-6 0-12 6-12 12v18c0 6 6 12 12 12" fill="none" stroke="#000"/><text font-family="Arial BoldMT" font-size="11" x="558.346" y="-551.2">KudosMeter</text><path d="m518-545.5h144" fill="none" stroke="#000"/><text font-family="ArialMT" font-size="10" x="525" y="-532">name</text><text fill="#999" font-family="Arial ItalicMT" font-size="10" x="552.793" y="-532">string ∗</text><path d="m590-517.213v254.797" fill="none" stroke="#000"/><ellipse cx="590" cy="-519.832" fill="none" rx="2.4" ry="2.4" stroke="#000"/><ellipse cx="590" cy="-253.927" fill="none" rx="2.4" ry="2.4" stroke="#000"/><path d="m592.1-262.327-2.1 6-2.1-6z" stroke="#000"/><path d="m582.133-517.842c-13.825 41.405-44.961 126.666-86.133 190.842-5.997 9.347-12.794 18.683-19.939 27.736" fill="none" stroke="#000"/><ellipse cx="582.899" cy="-520.152" fill="none" rx="2.40001" ry="2.40001" stroke="#000"/><ellipse cx="470.627" cy="-292.545" rx="2.40001" ry="2.40001" stroke="#000"/><path d="m477.542-297.756-5.406 3.345 2.141-5.986z" stroke="#000"/><path d="m309.176-141.336c-23.967 20.055-48.485 40.571-67.604 56.5699" fill="none" stroke="#000"/><ellipse cx="311.102" cy="-142.948" fill="none" rx="2.40002" ry="2.40002" stroke="#000"/><ellipse cx="239.662" cy="-83.1683" rx="2.40002" ry="2.40002" stroke="#000"/><path d="m304.399-217.5c-51.796 0-103.592 0-155.388 0" fill="none" stroke="#000" stroke-dasharray="1 5"/><ellipse cx="307.011" cy="-217.5" fill="none" rx="2.4" ry="2.4" stroke="#000"/><ellipse cx="146.57" cy="-217.5" fill="none" rx="2.4" ry="2.4" stroke="#000"/><path d="m399-139.356v20.426" fill="none" stroke="#000"/><ellipse cx="399" cy="-141.853" fill="none" rx="2.4" ry="2.4" stroke="#000"/><ellipse cx="399" cy="-110.222" fill="none" rx="2.4" ry="2.4" stroke="#000"/><path d="m401.1-118.622-2.1 6-2.1-6z" stroke="#000"/><path d="m579-36h120c6 0 12-6 12-12v-12c0-6-6-12-12-12h-120c-6 0-12 6-12 12v12c0 6 6 12 12 12" fill="none" stroke="#000"/><text font-family="Arial BoldMT" font-size="11" x="604.293" y="-50.2">PostReceiver</text><path d="m492.632-151.038c3.495 2.383 6.96 4.736 10.368 7.038 33.779 22.82 72.744 48.2271 100.285 66.0343" fill="none" stroke="#000"/><ellipse cx="490.499" cy="-152.495" fill="none" rx="2.40002" ry="2.40002" stroke="#000"/><ellipse cx="610.507" cy="-73.3026" fill="none" rx="2.40001" ry="2.40001" stroke="#000"/><path d="m604.589-79.6235 3.901 5.019-6.179-1.4906z" stroke="#000"/><path d="m1051-7h120c6 0 12-6 12-12v-70c0-6-6-12-12-12h-120c-6 0-12 6-12 12v70c0 6 6 12 12 12" fill="none" stroke="#000"/><text font-family="Arial BoldMT" font-size="11" x="1097.99" y="-87.7">Vote</text><path d="m1039-82h144" fill="none" stroke="#000"/><text font-family="ArialMT" font-size="10" x="1046" y="-68.5">votable_type</text><text fill="#999" font-family="Arial ItalicMT" font-size="10" x="1105.49" y="-68.5">string</text><text font-family="ArialMT" font-size="10" x="1046" y="-55.5">vote_flag</text><text fill="#999" font-family="Arial ItalicMT" font-size="10" x="1089.36" y="-55.5">boolean</text><text font-family="ArialMT" font-size="10" x="1046" y="-42.5">vote_scope</text><text fill="#999" font-family="Arial ItalicMT" font-size="10" x="1099.93" y="-42.5">string</text><text font-family="ArialMT" font-size="10" x="1046" y="-29.5">vote_weight</text><text fill="#999" font-family="Arial ItalicMT" font-size="10" x="1102.15" y="-29.5">integer</text><text font-family="ArialMT" font-size="10" x="1046" y="-16.5">voter_type</text><text fill="#999" font-family="Arial ItalicMT" font-size="10" x="1095.47" y="-16.5">string</text><path d="m493.104-148.278c3.287 1.536 6.59 2.969 9.896 4.278 24.179 9.575 364.359 56.2111 525.05 77.8857" fill="none" stroke="#000"/><ellipse cx="490.794" cy="-149.391" fill="none" rx="2.40002" ry="2.40002" stroke="#000"/><ellipse cx="1036.46" cy="-64.9812" fill="none" rx="2.4" ry="2.4" stroke="#000"/><path d="m1028.42-68.1844 5.66 2.8827-6.22 1.2797z" stroke="#000"/><path d="m527-796.5h126c6 0 12-6 12-12v-161c0-6-6-12-12-12h-126c-6 0-12 6-12 12v161c0 6 6 12 12 12" fill="none" stroke="#000"/><text font-family="Arial BoldMT" font-size="11" x="574.551" y="-968.2">Team</text><path d="m515-962.5h150" fill="none" stroke="#000"/><text font-family="ArialMT" font-size="10" x="522" y="-949.5">channel_id</text><text fill="#999" font-family="Arial ItalicMT" font-size="10" x="573.152" y="-949.5">string</text><text font-family="ArialMT" font-size="10" x="522" y="-936.5">general_info</text><text fill="#999" font-family="Arial ItalicMT" font-size="10" x="579.822" y="-936.5">text</text><text font-family="ArialMT" font-size="10" x="522" y="-923.5">logo_content_type</text><text fill="#999" font-family="Arial ItalicMT" font-size="10" x="606.512" y="-923.5">string</text><text font-family="ArialMT" font-size="10" x="522" y="-910.5">logo_file_name</text><text fill="#999" font-family="Arial ItalicMT" font-size="10" x="592.605" y="-910.5">string</text><text font-family="ArialMT" font-size="10" x="522" y="-897.5">logo_file_size</text><text fill="#999" font-family="Arial ItalicMT" font-size="10" x="585.374" y="-897.5">integer</text><text font-family="ArialMT" font-size="10" x="522" y="-884.5">logo_updated_at</text><text fill="#999" font-family="Arial ItalicMT" font-size="10" x="599.295" y="-884.5">datetime</text><text font-family="ArialMT" font-size="10" x="522" y="-871.5">name</text><text fill="#999" font-family="Arial ItalicMT" font-size="10" x="549.793" y="-871.5">string ∗</text><text font-family="ArialMT" font-size="10" x="522" y="-858.5">preferences</text><text fill="#999" font-family="Arial ItalicMT" font-size="10" x="577.586" y="-858.5">json</text><text font-family="ArialMT" font-size="10" x="522" y="-845.5">rss_token</text><text fill="#999" font-family="Arial ItalicMT" font-size="10" x="568.133" y="-845.5">string</text><text font-family="ArialMT" font-size="10" x="521.907" y="-832.5">slack_bot_access_token</text><text fill="#999" font-family="Arial ItalicMT" font-size="10" x="633.64" y="-832.5">string</text><text font-family="ArialMT" font-size="10" x="522" y="-819.5">slack_team_id</text><text fill="#999" font-family="Arial ItalicMT" font-size="10" x="588.699" y="-819.5">string</text><text font-family="ArialMT" font-size="10" x="522" y="-806.5">slug</text><text fill="#999" font-family="Arial ItalicMT" font-size="10" x="543.123" y="-806.5">string ∗</text><path d="m206-542.5c-44.548 77.731-15.414 360.31-4 455.7562" fill="none" stroke="#000"/><ellipse cx="202.308" cy="-84.1852" rx="2.40001" ry="2.40001" stroke="#000"/><path d="m510.191-875.983c-72.195 14.971-176.514 47.489-239.191 115.983-67.535 73.803-15.256 128.704-65 215.5" fill="none" stroke="#000" stroke-dasharray="1 5"/><ellipse cx="512.547" cy="-876.464" fill="none" rx="2.40001" ry="2.40001" stroke="#000"/><path d="m206-542.5c-50.766 88.58-92.531 200.167-115.2975 266.591" fill="none" stroke="#000" stroke-dasharray="1 5"/><ellipse cx="89.8719" cy="-273.477" fill="none" rx="2.40001" ry="2.40001" stroke="#000"/><path d="m1227-542.5c48.23 160.337-154.89 150.05-309 215.5-76.297 32.403-104.552 9.222-183 36-26.337 8.99-53.96 21.851-77.947 34.252" fill="none" stroke="#000" stroke-dasharray="1 5"/><ellipse cx="649.483" cy="-252.776" fill="none" rx="2.40001" ry="2.40001" stroke="#000"/><path d="m657.897-254.82-6.289.929 4.337-4.648z" stroke="#000"/><path d="m670.112-878.619c154.899 23.288 486.448 99.932 556.888 334.119" fill="none" stroke="#000" stroke-dasharray="1 5"/><ellipse cx="667.503" cy="-879.007" fill="none" rx="2.40001" ry="2.40001" stroke="#000"/><path d="m670.185-881.69c155.449 13.692 490.315 50.754 578.815 121.69 55.85 44.761 79.29 129.303 88.52 178.133" fill="none" stroke="#000"/><ellipse cx="667.575" cy="-881.918" fill="none" rx="2.4" ry="2.4" stroke="#000"/><ellipse cx="1339" cy="-573.505" fill="none" rx="2.4" ry="2.4" stroke="#000"/><path d="m1339.6-582.143-1.02 6.275-3.11-5.54z" stroke="#000"/><path d="m590-791.262v215.684" fill="none" stroke="#000"/><ellipse cx="590" cy="-794" fill="none" rx="2.4" ry="2.4" stroke="#000"/><ellipse cx="590" cy="-567.039" fill="none" rx="2.4" ry="2.4" stroke="#000"/><path d="m592.1-575.439-2.1 6-2.1-6z" stroke="#000"/><path d="m518.081-791.934c-5.772 10.434-10.956 21.178-15.081 31.934-69.544 181.345-8.264 245.521-59 433-2.336 8.63-5.191 17.487-8.32 26.24" fill="none" stroke="#000"/><ellipse cx="519.411" cy="-794.295" fill="none" rx="2.40002" ry="2.40002" stroke="#000"/><ellipse cx="432.731" cy="-292.804" rx="2.40001" ry="2.40001" stroke="#000"/><path d="m437.62-299.95-4.055 4.896.116-6.356z" stroke="#000"/><path d="m1456-503h120c6 0 12-6 12-12v-57c0-6-6-12-12-12h-120c-6 0-12 6-12 12v57c0 6 6 12 12 12" fill="none" stroke="#000"/><text font-family="Arial BoldMT" font-size="11" x="1487.41" y="-570.7">TeamInvite</text><path d="m1444-565h144" fill="none" stroke="#000"/><text font-family="ArialMT" font-size="10" x="1451" y="-552">accepted_at</text><text fill="#999" font-family="Arial ItalicMT" font-size="10" x="1508.27" y="-552">datetime</text><text font-family="ArialMT" font-size="10" x="1451" y="-539">declined_at</text><text fill="#999" font-family="Arial ItalicMT" font-size="10" x="1504.93" y="-539">datetime</text><text font-family="ArialMT" font-size="10" x="1451" y="-526">email</text><text fill="#999" font-family="Arial ItalicMT" font-size="10" x="1477.67" y="-526">string ∗</text><text font-family="ArialMT" font-size="10" x="1451" y="-513">sent_at</text><text fill="#999" font-family="Arial ItalicMT" font-size="10" x="1486.58" y="-513">datetime</text><path d="m670.091-885.662c186.358 6.963 642.069 33.241 758.909 125.662 50.89 40.259 72.18 114.993 80.97 164.992" fill="none" stroke="#000"/><ellipse cx="667.596" cy="-885.754" fill="none" rx="2.4" ry="2.4" stroke="#000"/><ellipse cx="1511.37" cy="-586.482" rx="2.4" ry="2.4" stroke="#000"/><path d="m1512.08-595.111-1.1 6.261-3.04-5.581z" stroke="#000"/><path d="m1167-177h120c6 0 12-6 12-12v-57c0-6-6-12-12-12h-120c-6 0-12 6-12 12v57c0 6 6 12 12 12" fill="none" stroke="#000"/><text font-family="Arial BoldMT" font-size="11" x="1191.38" y="-244.7">TeamMember</text><path d="m1155-239h144" fill="none" stroke="#000"/><text font-family="ArialMT" font-size="10" x="1162" y="-226">role</text><text fill="#999" font-family="Arial ItalicMT" font-size="10" x="1181.45" y="-226">enum</text><text font-family="ArialMT" font-size="10" x="1162" y="-213">slack_id</text><text fill="#999" font-family="Arial ItalicMT" font-size="10" x="1200.91" y="-213">string</text><text font-family="ArialMT" font-size="10" x="1162" y="-200">slack_name</text><text fill="#999" font-family="Arial ItalicMT" font-size="10" x="1218.14" y="-200">string</text><text font-family="ArialMT" font-size="10" x="1162" y="-187">slack_username</text><text fill="#999" font-family="Arial ItalicMT" font-size="10" x="1237.59" y="-187">string</text><path d="m1227-542.5c28.07 93.312 18.15 208.696 8.8 273.554" fill="none" stroke="#000"/><ellipse cx="1234.55" cy="-260.584" fill="none" rx="2.4" ry="2.4" stroke="#000"/><path d="m1237.87-268.58-2.97 5.622-1.18-6.245z" stroke="#000"/><path d="m1227-542.5c27.84 92.546-23.2 134.17 29 215.5 16.18 25.216 42.54 9.759 57 36 31.54 57.218 35.69 92.276 0 147-26.45 40.552-75.98 62.7547-119.38 74.8424" fill="none" stroke="#000"/><ellipse cx="1185.35" cy="-66.9803" fill="none" rx="2.4" ry="2.4" stroke="#000"/><path d="m1194-67.0877-6.33-.5035 5.26-3.5581z" stroke="#000"/><path d="m752-327.5h140c6 0 12-6 12-12v-408c0-6-6-12-12-12h-140c-6 0-12 6-12 12v408c0 6 6 12 12 12" fill="none" stroke="#000"/><text font-family="Arial BoldMT" font-size="11" x="808.388" y="-746.2">User</text><path d="m740-740.5h164" fill="none" stroke="#000"/><g font-size="10"><text font-family="ArialMT" x="747" y="-727">admin</text><text fill="#999" font-family="Arial ItalicMT" x="777.015" y="-727">boolean</text><text font-family="ArialMT" x="747" y="-714">api_token</text><text fill="#999" font-family="Arial ItalicMT" x="793.147" y="-714">string</text><text font-family="ArialMT" x="747" y="-701">avatar_url</text><text fill="#999" font-family="Arial ItalicMT" x="794.246" y="-701">string</text><text font-family="ArialMT" x="747" y="-688">company_user</text><text fill="#999" font-family="Arial ItalicMT" x="815.369" y="-688">boolean</text><text font-family="ArialMT" x="747" y="-675">confirmation_sent_at</text><text fill="#999" font-family="Arial ItalicMT" x="842.61" y="-675">datetime</text><text font-family="ArialMT" x="747" y="-662">confirmation_token</text><text fill="#999" font-family="Arial ItalicMT" x="834.271" y="-662">string</text><text font-family="ArialMT" x="747" y="-649">confirmed_at</text><text fill="#999" font-family="Arial ItalicMT" x="807.586" y="-649">datetime</text><text font-family="ArialMT" x="747" y="-636">current_sign_in_at</text><text fill="#999" font-family="Arial ItalicMT" x="832.054" y="-636">datetime</text><text font-family="ArialMT" x="747" y="-623">current_sign_in_ip</text><text fill="#999" font-family="Arial ItalicMT" x="831.497" y="-623">inet</text><text font-family="ArialMT" x="747" y="-610">deactivated_at</text><text fill="#999" font-family="Arial ItalicMT" x="814.827" y="-610">datetime</text><text font-family="ArialMT" x="747" y="-597">email</text><text fill="#999" font-family="Arial ItalicMT" x="773.675" y="-597">string ∗ U</text><text font-family="ArialMT" x="747" y="-584">encrypted_password</text><text fill="#999" font-family="Arial ItalicMT" x="842.054" y="-584">string ∗</text><text font-family="ArialMT" x="747" y="-571">failed_attempts</text><text fill="#999" font-family="Arial ItalicMT" x="817.596" y="-571">integer ∗</text><text font-family="ArialMT" x="747" y="-558">last_sign_in_at</text><text fill="#999" font-family="Arial ItalicMT" x="816.492" y="-558">datetime</text><text font-family="ArialMT" x="747" y="-545">last_sign_in_ip</text><text fill="#999" font-family="Arial ItalicMT" x="815.936" y="-545">inet</text><text font-family="ArialMT" x="747" y="-532">locked_at</text><text fill="#999" font-family="Arial ItalicMT" x="792.586" y="-532">datetime</text><text font-family="ArialMT" x="747" y="-519">name</text><text fill="#999" font-family="Arial ItalicMT" x="774.793" y="-519">string ∗</text><text font-family="ArialMT" x="747" y="-506">preferences</text><text fill="#999" font-family="Arial ItalicMT" x="802.586" y="-506">json</text><text font-family="ArialMT" x="747" y="-493">provider</text><text fill="#999" font-family="Arial ItalicMT" x="785.906" y="-493">string</text><text font-family="ArialMT" x="747" y="-480">remember_created_at</text><text fill="#999" font-family="Arial ItalicMT" x="848.162" y="-480">datetime</text><text font-family="ArialMT" x="746.956" y="-467">reset_password_sent_at</text><text fill="#999" font-family="Arial ItalicMT" x="858.689" y="-467">datetime</text><text font-family="ArialMT" x="747" y="-454">reset_password_token</text><text fill="#999" font-family="Arial ItalicMT" x="850.394" y="-454">string</text><text font-family="ArialMT" x="747" y="-441">restricted</text><text fill="#999" font-family="Arial ItalicMT" x="790.901" y="-441">boolean</text><text font-family="ArialMT" x="747" y="-428">sign_in_count</text><text fill="#999" font-family="Arial ItalicMT" x="811.492" y="-428">integer ∗</text><text font-family="ArialMT" x="747" y="-415">slack_id</text><text fill="#999" font-family="Arial ItalicMT" x="785.906" y="-415">string</text><text font-family="ArialMT" x="747" y="-402">slack_name</text><text fill="#999" font-family="Arial ItalicMT" x="803.138" y="-402">string</text><text font-family="ArialMT" x="747" y="-389">slack_username</text><text fill="#999" font-family="Arial ItalicMT" x="822.591" y="-389">string</text><text font-family="ArialMT" x="747" y="-376">uid</text><text fill="#999" font-family="Arial ItalicMT" x="763.123" y="-376">string</text><text font-family="ArialMT" x="747" y="-363">unconfirmed_email</text><text fill="#999" font-family="Arial ItalicMT" x="834.266" y="-363">string</text><text font-family="ArialMT" x="747" y="-350">unlock_token</text><text fill="#999" font-family="Arial ItalicMT" x="808.709" y="-350">string</text><text font-family="ArialMT" x="747" y="-337">virtual_user</text><text fill="#999" font-family="Arial ItalicMT" x="801.468" y="-337">boolean ∗</text></g><g stroke="#000"><path d="m822-322.408v46.861" fill="none"/><ellipse cx="822" cy="-324.889" fill="none" rx="2.4" ry="2.4"/><ellipse cx="822" cy="-267.083" fill="none" rx="2.4" ry="2.4"/><path d="m824.1-275.483-2.1 6-2.1-6z"/><path d="m906.599-384.061c27.659 51.801 55.577 104.087 72.435 135.66" fill="none"/><ellipse cx="905.324" cy="-386.448" fill="none" rx="2.40002" ry="2.40002"/><ellipse cx="983.181" cy="-240.635" fill="none" rx="2.40001" ry="2.40001"/><path d="m981.077-249.034.973 6.281-4.678-4.303z"/><path d="m736.964-384.808c-17.645 22.06-37.983 42.413-60.964 57.808-65.248 43.711-100.879 4.913-173 36-1.484.64-2.969 1.303-4.453 1.986" fill="none"/><ellipse cx="738.512" cy="-386.769" rx="2.40002" ry="2.40002"/><ellipse cx="490.932" cy="-285.272" rx="2.40001" ry="2.40001"/><path d="m499.397-287.092-6.311.762 4.459-4.531z"/><path d="m743.4-322.75c-21.372 58.294-44.853 121.063-67.4 178.75-8.122 20.78-17.82 44.0556-25.249 61.5912" fill="none"/><ellipse cx="744.24" cy="-325.043" fill="none" rx="2.40001" ry="2.40001"/><ellipse cx="647.392" cy="-74.5143" fill="none" rx="2.40001" ry="2.40001"/><path d="m652.613-81.4216-4.281 4.6989.416-6.3432z"/><path d="m736.97-670.395c-26.022-38.529-54.288-80.38-79.016-116.992" fill="none" stroke-dasharray="1 5"/><ellipse cx="738.462" cy="-668.186" fill="none" rx="2.40002" ry="2.40002"/><ellipse cx="653.21" cy="-794.411" fill="none" rx="2.40001" ry="2.40001"/><path d="m656.172-786.274-1.618-6.148 5.098 3.797z"/><path d="m908.319-473.445c78.588 62.871 192.461 153.966 260.671 208.537" fill="none"/><ellipse cx="906.32" cy="-475.044" fill="none" rx="2.40002" ry="2.40002"/><ellipse cx="1175.61" cy="-259.611" fill="none" rx="2.40001" ry="2.40001"/><path d="m1170.36-266.498 3.38 5.388-6-2.108z"/><path d="m908.049-483.613c58.999 45.379 133.481 113.606 172.951 192.613 28.14 56.335 33.4 129.279 33.06 179.065" fill="none"/><ellipse cx="906.092" cy="-485.11" fill="none" rx="2.40002" ry="2.40002"/><ellipse cx="1113.93" cy="-103.453" fill="none" rx="2.4" ry="2.4"/><path d="m1116.15-111.82-2.19 5.967-2-6.031z"/></g></g></svg>